<?xml version="1.0" encoding="UTF-8" standalone="no"?>
<!-- Created with Inkscape (http://www.inkscape.org/) -->

<svg
   width="13.520844mm"
   height="13.520844mm"
   viewBox="0 0 47.908501 47.908501"
   id="svg2"
   version="1.1"
   inkscape:version="1.1.1 (3bf5ae0d25, 2021-09-20)"
   sodipodi:docname="AAAAAAAAAAa.svg"
   inkscape:export-filename="/home/jorge/Documents/workspace/CalculadoraDeRessonancia/public/favicon.png"
   inkscape:export-xdpi="961.83002"
   inkscape:export-ydpi="961.83002"
   xmlns:inkscape="http://www.inkscape.org/namespaces/inkscape"
   xmlns:sodipodi="http://sodipodi.sourceforge.net/DTD/sodipodi-0.dtd"
   xmlns:xlink="http://www.w3.org/1999/xlink"
   xmlns="http://www.w3.org/2000/svg"
   xmlns:svg="http://www.w3.org/2000/svg"
   xmlns:rdf="http://www.w3.org/1999/02/22-rdf-syntax-ns#"
   xmlns:cc="http://creativecommons.org/ns#"
   xmlns:dc="http://purl.org/dc/elements/1.1/">
  <defs
     id="defs4">
    <marker
       inkscape:isstock="true"
       inkscape:stockid="DistanceStart"
       orient="auto"
       refY="0"
       refX="0"
       id="DistanceStart"
       style="overflow:visible">
      <g
         id="g2300">
        <path
           id="path2306"
           d="M 0,0 2,0"
           style="fill:none;stroke:#ffffff;stroke-width:1.14999998;stroke-linecap:square"
           inkscape:connector-curvature="0" />
        <path
           id="path2302"
           d="M 0,0 13,4 9,0 13,-4 0,0 Z"
           style="fill:#000000;fill-rule:evenodd;stroke:none"
           inkscape:connector-curvature="0" />
        <path
           id="path2304"
           d="M 0,-4 0,40"
           style="fill:none;stroke:#000000;stroke-width:1;stroke-linecap:square"
           inkscape:connector-curvature="0" />
      </g>
    </marker>
    <linearGradient
       x1="14.66"
       y1="7.0243001"
       x2="24.031"
       gradientUnits="userSpaceOnUse"
       y2="34.826"
       id="G3">
      <stop
         offset="0"
         stop-color="#fcf9fb"
         id="s3" />
      <stop
         offset="1"
         stop-opacity="0"
         stop-color="#fcf9fb"
         id="s4" />
    </linearGradient>
    <radialGradient
       fy="32.797306"
       fx="28.935429"
       r="22"
       gradientTransform="matrix(1,-0.2,0.2,1,-3.8,6.8)"
       cx="28.935429"
       cy="32.797306"
       gradientUnits="userSpaceOnUse"
       id="R0">
      <stop
         offset="0"
         stop-color="#e6cf00"
         id="s1" />
      <stop
         offset="1"
         stop-color="#fde94a"
         id="s2" />
    </radialGradient>
    <radialGradient
       r="9.6875"
       gradientTransform="matrix(2.4,0,0,0.67,-17.1,22.4)"
       cx="17.312"
       cy="25.531"
       gradientUnits="userSpaceOnUse"
       id="R1">
      <stop
         offset="0"
         stop-opacity=".63"
         id="s5" />
      <stop
         offset="1"
         stop-opacity="0"
         id="s6" />
    </radialGradient>
    <linearGradient
       gradientTransform="matrix(0.31170768,-0.14537193,0.14537193,0.31170768,-216.07743,565.35148)"
       y2="34.826"
       x2="24.031"
       y1="7.0243001"
       x1="14.66"
       gradientUnits="userSpaceOnUse"
       id="linearGradient2995"
       xlink:href="#G3"
       inkscape:collect="always" />
    <radialGradient
       r="22"
       fy="32.797306"
       fx="28.935429"
       cy="32.797306"
       cx="28.935429"
       gradientTransform="matrix(1,-0.2,0.2,1,78.2,6.8)"
       gradientUnits="userSpaceOnUse"
       id="radialGradient3011"
       xlink:href="#R0"
       inkscape:collect="always" />
    <radialGradient
       r="22"
       fy="32.797306"
       fx="28.935429"
       cy="32.797306"
       cx="28.935429"
       gradientTransform="matrix(1,-0.2,0.2,1,78.2,6.8)"
       gradientUnits="userSpaceOnUse"
       id="radialGradient3018-9"
       xlink:href="#R0-4"
       inkscape:collect="always" />
    <radialGradient
       fy="32.797306"
       fx="28.935429"
       r="22"
       gradientTransform="matrix(1,-0.2,0.2,1,-3.8,6.8)"
       cx="28.935429"
       cy="32.797306"
       gradientUnits="userSpaceOnUse"
       id="R0-4">
      <stop
         offset="0"
         stop-color="#e6cf00"
         id="s1-8" />
      <stop
         offset="1"
         stop-color="#fde94a"
         id="s2-8" />
    </radialGradient>
    <radialGradient
       r="22"
       fy="32.797306"
       fx="28.935429"
       cy="32.797306"
       cx="28.935429"
       gradientTransform="matrix(1,-0.2,0.2,1,78.2,6.8)"
       gradientUnits="userSpaceOnUse"
       id="radialGradient3028-2"
       xlink:href="#R0-45"
       inkscape:collect="always" />
    <radialGradient
       fy="32.797306"
       fx="28.935429"
       r="22"
       gradientTransform="matrix(1,-0.2,0.2,1,-3.8,6.8)"
       cx="28.935429"
       cy="32.797306"
       gradientUnits="userSpaceOnUse"
       id="R0-45">
      <stop
         offset="0"
         stop-color="#e6cf00"
         id="s1-5" />
      <stop
         offset="1"
         stop-color="#fde94a"
         id="s2-1" />
    </radialGradient>
    <radialGradient
       r="22"
       fy="32.797306"
       fx="28.935429"
       cy="32.797306"
       cx="28.935429"
       gradientTransform="matrix(1,-0.2,0.2,1,78.2,6.8)"
       gradientUnits="userSpaceOnUse"
       id="radialGradient3986"
       xlink:href="#R0-45"
       inkscape:collect="always" />
    <radialGradient
       r="22"
       fy="32.797306"
       fx="28.935429"
       cy="32.797306"
       cx="28.935429"
       gradientTransform="matrix(1,-0.2,0.2,1,78.2,6.8)"
       gradientUnits="userSpaceOnUse"
       id="radialGradient3986-5"
       xlink:href="#R0-45-7"
       inkscape:collect="always" />
    <radialGradient
       fy="32.797306"
       fx="28.935429"
       r="22"
       gradientTransform="matrix(1,-0.2,0.2,1,-3.8,6.8)"
       cx="28.935429"
       cy="32.797306"
       gradientUnits="userSpaceOnUse"
       id="R0-45-7">
      <stop
         offset="0"
         stop-color="#e6cf00"
         id="s1-5-6" />
      <stop
         offset="1"
         stop-color="#fde94a"
         id="s2-1-1" />
    </radialGradient>
    <radialGradient
       inkscape:collect="always"
       xlink:href="#R0-45-7"
       id="radialGradient4007"
       gradientUnits="userSpaceOnUse"
       gradientTransform="matrix(1,-0.2,0.2,1,78.2,6.8)"
       cx="28.935429"
       cy="32.797306"
       fx="28.935429"
       fy="32.797306"
       r="22" />
    <radialGradient
       r="22"
       fy="32.797306"
       fx="28.935429"
       cy="32.797306"
       cx="28.935429"
       gradientTransform="matrix(1,-0.2,0.2,1,78.2,6.8)"
       gradientUnits="userSpaceOnUse"
       id="radialGradient3986-5-2"
       xlink:href="#R0-45-7-7"
       inkscape:collect="always" />
    <radialGradient
       fy="32.797306"
       fx="28.935429"
       r="22"
       gradientTransform="matrix(1,-0.2,0.2,1,-3.8,6.8)"
       cx="28.935429"
       cy="32.797306"
       gradientUnits="userSpaceOnUse"
       id="R0-45-7-7">
      <stop
         offset="0"
         stop-color="#e6cf00"
         id="s1-5-6-9" />
      <stop
         offset="1"
         stop-color="#fde94a"
         id="s2-1-1-5" />
    </radialGradient>
    <radialGradient
       inkscape:collect="always"
       xlink:href="#R0-45-7-7"
       id="radialGradient4041"
       gradientUnits="userSpaceOnUse"
       gradientTransform="matrix(1,-0.2,0.2,1,78.2,6.8)"
       cx="28.935429"
       cy="32.797306"
       fx="28.935429"
       fy="32.797306"
       r="22" />
    <radialGradient
       r="22"
       fy="32.797306"
       fx="28.935429"
       cy="32.797306"
       cx="28.935429"
       gradientTransform="matrix(1,-0.2,0.2,1,78.2,6.8)"
       gradientUnits="userSpaceOnUse"
       id="radialGradient4065"
       xlink:href="#R0-45"
       inkscape:collect="always" />
    <radialGradient
       r="22"
       fy="32.797306"
       fx="28.935429"
       cy="32.797306"
       cx="28.935429"
       gradientTransform="matrix(1,-0.2,0.2,1,78.2,6.8)"
       gradientUnits="userSpaceOnUse"
       id="radialGradient4065-4"
       xlink:href="#R0-45-3"
       inkscape:collect="always" />
    <radialGradient
       fy="32.797306"
       fx="28.935429"
       r="22"
       gradientTransform="matrix(1,-0.2,0.2,1,-3.8,6.8)"
       cx="28.935429"
       cy="32.797306"
       gradientUnits="userSpaceOnUse"
       id="R0-45-3">
      <stop
         offset="0"
         stop-color="#e6cf00"
         id="s1-5-1" />
      <stop
         offset="1"
         stop-color="#fde94a"
         id="s2-1-2" />
    </radialGradient>
    <radialGradient
       r="22"
       fy="32.797306"
       fx="28.935429"
       cy="32.797306"
       cx="28.935429"
       gradientTransform="matrix(1.0439725,-0.20879451,0.20879451,1.0439725,-147.8058,553.72738)"
       gradientUnits="userSpaceOnUse"
       id="radialGradient4113"
       xlink:href="#R0-45-7-7"
       inkscape:collect="always" />
    <radialGradient
       r="22"
       fy="32.797306"
       fx="28.935429"
       cy="32.797306"
       cx="28.935429"
       gradientTransform="matrix(1,-0.2,0.2,1,78.2,6.8)"
       gradientUnits="userSpaceOnUse"
       id="radialGradient4117"
       xlink:href="#R0-45"
       inkscape:collect="always" />
    <radialGradient
       r="22"
       fy="32.797306"
       fx="28.935429"
       cy="32.797306"
       cx="28.935429"
       gradientTransform="matrix(0.61925922,-1.4303233,1.4303233,0.61925922,-39.346374,44.502008)"
       gradientUnits="userSpaceOnUse"
       id="radialGradient4120"
       xlink:href="#R0-45"
       inkscape:collect="always" />
    <radialGradient
       fy="32.797306"
       fx="28.935429"
       r="22"
       gradientTransform="matrix(1,-0.2,0.2,1,-3.8,6.8)"
       cx="28.935429"
       cy="32.797306"
       gradientUnits="userSpaceOnUse"
       id="R0-45-7-7-7">
      <stop
         offset="0"
         stop-color="#e6cf00"
         id="s1-5-6-9-5" />
      <stop
         offset="1"
         stop-color="#fde94a"
         id="s2-1-1-5-3" />
    </radialGradient>
    <mask
       maskUnits="userSpaceOnUse"
       id="mask461">
      <circle
         r="22.95425"
         cy="637.89996"
         cx="-206.46683"
         id="circle463"
         style="color:#000000;display:inline;overflow:visible;visibility:visible;fill:url(#radialGradient465);fill-opacity:1;fill-rule:nonzero;stroke:#000000;stroke-width:2;stroke-linecap:butt;stroke-linejoin:miter;stroke-miterlimit:4;stroke-dasharray:none;stroke-dashoffset:0;stroke-opacity:1;marker:none;enable-background:accumulate" />
    </mask>
    <radialGradient
       inkscape:collect="always"
       xlink:href="#R0-45-7-7-7"
       id="radialGradient465"
       gradientUnits="userSpaceOnUse"
       gradientTransform="matrix(1.0439725,-0.20879451,0.20879451,1.0439725,-148.55834,619.26519)"
       cx="28.935429"
       cy="32.797306"
       fx="28.935429"
       fy="32.797306"
       r="22" />
  </defs>
  <sodipodi:namedview
     id="base"
     pagecolor="#ffffff"
     bordercolor="#666666"
     borderopacity="1.0"
     inkscape:pageopacity="0.0"
     inkscape:pageshadow="2"
     inkscape:zoom="11.2"
     inkscape:cx="24.464286"
     inkscape:cy="37.544643"
     inkscape:document-units="px"
     inkscape:current-layer="layer1"
     showgrid="false"
     fit-margin-top="0"
     fit-margin-left="0"
     fit-margin-right="0"
     fit-margin-bottom="0"
     inkscape:window-width="1920"
     inkscape:window-height="1019"
     inkscape:window-x="0"
     inkscape:window-y="30"
     inkscape:window-maximized="1"
     inkscape:pagecheckerboard="0" />
  <metadata
     id="metadata7">
    <rdf:RDF>
      <cc:Work
         rdf:about="">
        <dc:format>image/svg+xml</dc:format>
        <dc:type
           rdf:resource="http://purl.org/dc/dcmitype/StillImage" />
      </cc:Work>
    </rdf:RDF>
  </metadata>
  <g
     inkscape:label="Layer 1"
     inkscape:groupmode="layer"
     id="layer1"
     transform="translate(229.66854,-548.40793)">
    <path
       id="hl"
       d="m -206.82877,565.402 2.03199,0.91795 c 1.54237,0.71307 0.75483,0.33719 2.36782,1.12659 -4.12683,1.94063 -0.28812,2.61772 -4.43562,5.1369 l 0.0102,-0.70185 c 0.0502,-4.01163 -0.32955,1.92558 0.0256,-6.47959 z"
       style="opacity:0.8;fill:url(#linearGradient2995)"
       inkscape:connector-curvature="0"
       sodipodi:nodetypes="cccccc" />
    <ellipse
       cy="572.36218"
       cx="-205.71429"
       style="color:#000000;display:inline;overflow:visible;visibility:visible;opacity:0.69;fill:none;stroke:#ffffff;stroke-width:2.5308;stroke-linecap:butt;stroke-linejoin:miter;stroke-miterlimit:4;stroke-dasharray:none;stroke-dashoffset:0;stroke-opacity:1;marker:none;enable-background:accumulate"
       id="path4067"
       rx="20.743124"
       ry="20.743464" />
    <circle
       r="22.95425"
       cy="572.36218"
       cx="-205.71429"
       id="path3932"
       style="color:#000000;display:inline;overflow:visible;visibility:visible;fill:url(#radialGradient4113);fill-opacity:1;fill-rule:nonzero;stroke:#000000;stroke-width:2;stroke-linecap:butt;stroke-linejoin:miter;stroke-miterlimit:4;stroke-dasharray:none;stroke-dashoffset:0;stroke-opacity:1;marker:none;enable-background:accumulate" />
    <flowRoot
       style="font-style:normal;font-variant:normal;font-weight:normal;font-stretch:normal;line-height:0.01%;font-family:Arial;-inkscape-font-specification:Arial;text-align:center;letter-spacing:2.72px;word-spacing:0px;text-anchor:middle;fill:#000000;fill-opacity:1;stroke:none;stroke-width:1px;stroke-linecap:butt;stroke-linejoin:miter;stroke-opacity:1"
       id="flowRoot3379"
       xml:space="preserve"
       transform="translate(-229.71429,548.3622)"><flowRegion
         id="flowRegion3381"><rect
           style="font-size:22.5px"
           y="12.076912"
           x="10.03369"
           height="29.110088"
           width="28.986216"
           id="rect3383" /></flowRegion><flowPara
         id="flowPara3385"
         style="font-size:22.5px;line-height:1.25"> </flowPara></flowRoot>
    <path
       fill="#ff5500"
       fill-opacity="1"
       d="m -305.06721,658.12136 0.91619,-6.82483 c 0.90141,-6.89801 2.77812,-20.43788 4.55137,-24.40836 1.80282,-3.89729 3.6943,1.95779 5.46756,0.98804 1.80282,-1.04293 3.54653,-8.72772 5.46756,-9.77066 1.78804,-0.96974 3.54653,4.88533 5.46756,11.71016 1.77327,6.89801 3.54653,14.58281 5.46757,20.49277 1.75848,5.80019 3.54652,9.82556 5.46755,11.71016 1.74371,1.9578 3.54653,1.9578 5.31979,-3.89728 1.89148,-5.85508 3.6943,-17.56524 5.46756,-24.39007 1.87671,-6.89801 3.6943,-8.72772 5.46757,-3.91558 1.86192,4.88533 3.69429,16.59549 5.46755,18.55328 1.84715,1.8846 3.6943,-5.80019 5.46757,-4.88533 1.84714,0.91486 3.69429,10.7953 5.46755,12.6799 1.83237,1.9578 3.6943,-3.89728 5.46757,-7.79457 1.81759,-3.97047 3.69429,-5.80019 5.46755,-7.81287 1.80282,-2.01268 3.6943,-3.8424 5.46757,-6.82483 1.80281,-2.87264 3.54652,-6.89801 5.46755,-2.92754 1.78804,3.89729 3.54653,15.60745 5.46757,13.64966 1.77326,-1.88461 3.54652,-17.62013 5.46755,-18.53499 1.75849,-0.91485 3.54653,12.62502 5.46757,16.59549 1.74371,3.89729 3.54652,-1.95779 5.31978,-2.92754 1.89148,-1.04293 3.6943,2.98243 5.46757,3.89729 1.8767,0.91486 3.69429,-0.91486 5.46755,-3.89729 1.86193,-2.87265 3.6943,-6.89801 5.46756,-1.95779 1.84715,4.94022 3.6943,18.48009 5.46756,16.59549 1.84715,-1.95779 3.6943,-19.52303 5.46756,-25.37811 1.83238,-5.85508 3.6943,0 5.46756,3.89729 1.81759,3.97047 3.6943,5.80019 5.46756,7.81287 1.80282,2.01268 3.6943,3.8424 5.46756,5.85508 1.80282,2.01268 3.54653,3.84239 5.46756,-0.96975 1.78804,-4.88533 3.54653,-16.59549 5.46756,-18.55328 1.77326,-1.8846 3.54653,5.80019 5.46756,6.84312 1.75849,0.96975 3.54653,-4.88533 5.46757,-1.95779 1.7437,2.92754 3.54652,14.6377 5.31978,16.59549 1.89148,1.8846 3.6943,-5.80019 5.46756,-5.85508 1.8767,0.0549 3.6943,7.73968 5.46756,11.71016 1.86193,3.89729 3.6943,3.89729 5.46757,4.86703 1.84715,1.04294 3.69429,2.87265 5.46755,-1.93949 1.84715,-4.88533 3.694298,-16.59549 5.467568,-23.42032 1.83237,-6.89801 3.69429,-8.72772 4.58092,-9.77066 l 0.88663,-0.96975 v 46.84063 h -0.91618 c -0.90141,0 -2.77811,0 -4.55137,0 -1.80282,0 -3.694298,0 -5.467568,0 -1.80282,0 -3.54652,0 -5.46755,0 -1.78805,0 -3.54653,0 -5.46757,0 -1.77326,0 -3.54653,0 -5.46756,0 -1.75848,0 -3.54652,0 -5.46756,0 -1.74371,0 -3.54653,0 -5.31978,0 -1.89148,0 -3.6943,0 -5.46757,0 -1.8767,0 -3.6943,0 -5.46756,0 -1.86192,0 -3.69429,0 -5.46756,0 -1.84715,0 -3.6943,0 -5.46756,0 -1.84714,0 -3.69429,0 -5.46756,0 -1.83237,0 -3.6943,0 -5.46756,0 -1.81759,0 -3.69429,0 -5.46756,0 -1.80281,0 -3.6943,0 -5.46756,0 -1.80281,0 -3.54652,0 -5.46756,0 -1.78804,0 -3.54653,0 -5.46756,0 -1.77326,0 -3.54652,0 -5.46755,0 -1.75849,0 -3.54653,0 -5.46757,0 -1.74371,0 -3.54652,0 -5.31978,0 -1.89149,0 -3.6943,0 -5.46757,0 -1.8767,0 -3.69429,0 -5.46755,0 -1.86193,0 -3.6943,0 -5.46757,0 -1.84715,0 -3.69429,0 -5.46755,0 -1.84715,0 -3.6943,0 -5.46757,0 -1.83237,0 -3.69429,0 -5.46755,0 -1.8176,0 -3.6943,0 -5.46757,0 -1.80282,0 -3.6943,0 -5.46755,0 -1.80282,0 -3.54653,0 -5.46757,0 -1.78804,0 -3.54652,0 -5.46755,0 -1.77327,0 -3.54653,0 -5.46757,0 -1.75848,0 -3.54653,0 -5.46756,0 -1.7437,0 -3.54652,0 -5.31979,0 -1.89148,0 -3.6943,0 -5.46755,0 -1.8767,0 -3.6943,0 -5.46757,0 -1.86192,0 -3.6943,0 -5.46756,0 -1.84714,0 -3.69429,0 -5.46756,0 -1.84714,0 -3.69429,0 -5.46756,0 -1.83236,0 -3.69429,0 -4.58093,0 h -0.88663 z"
       id="path2-3"
       style="stroke-width:0.164432"
       mask="url(#mask461)"
       transform="translate(0.7712108,-65.468715)" />
    <g
       id="g1"
       transform="matrix(0.38161271,0,0,0.38161271,-220.24,557.76187)">
      <polygon
         style="fill:#111111;stroke:#111111;stroke-width:5;stroke-linejoin:round"
         points="39.389,13.769 39.389,13.769 22.235,28.606 6,28.606 6,47.699 21.989,47.699 39.389,62.75 "
         id="polygon1" />
      <path
         style="fill:none;stroke:#111111;stroke-width:5;stroke-linecap:round"
         d="m 48.128,49.03 c 1.929,-3.096 3.062,-6.739 3.062,-10.653 0,-3.978 -1.164,-7.674 -3.147,-10.8"
         id="path1"
         inkscape:connector-curvature="0" />
      <path
         style="fill:none;stroke:#111111;stroke-width:5;stroke-linecap:round"
         d="m 55.082,20.537 c 3.695,4.986 5.884,11.157 5.884,17.84 0,6.621 -2.151,12.738 -5.788,17.699"
         id="path2"
         inkscape:connector-curvature="0" />
      <path
         style="fill:none;stroke:#111111;stroke-width:5;stroke-linecap:round"
         d="m 61.71,62.611 c 5.267,-6.666 8.418,-15.08 8.418,-24.233 0,-9.217 -3.192,-17.682 -8.519,-24.368"
         id="path3446"
         inkscape:connector-curvature="0" />
    </g>
  </g>
</svg>
